<svg width="26" height="25" viewBox="0 0 26 25" fill="none" xmlns="http://www.w3.org/2000/svg">
<path d="M13 12C14.1867 12 15.3467 11.6481 16.3334 10.9888C17.3201 10.3295 18.0892 9.39246 18.5433 8.2961C18.9974 7.19975 19.1162 5.99335 18.8847 4.82946C18.6532 3.66558 18.0818 2.59648 17.2426 1.75736C16.4035 0.918247 15.3344 0.346802 14.1705 0.115291C13.0067 -0.11622 11.8003 0.00259972 10.7039 0.456726C9.60754 0.910851 8.67047 1.67989 8.01118 2.66658C7.35189 3.65328 7 4.81331 7 6C7.00159 7.59081 7.63424 9.11602 8.75911 10.2409C9.88399 11.3658 11.4092 11.9984 13 12ZM13 2C13.7911 2 14.5645 2.2346 15.2223 2.67412C15.8801 3.11365 16.3928 3.73836 16.6955 4.46927C16.9983 5.20017 17.0775 6.00444 16.9231 6.78036C16.7688 7.55629 16.3878 8.26902 15.8284 8.82843C15.269 9.38784 14.5563 9.7688 13.7804 9.92314C13.0044 10.0775 12.2002 9.99827 11.4693 9.69552C10.7384 9.39277 10.1136 8.88008 9.67412 8.22228C9.2346 7.56449 9 6.79113 9 6C9 4.93914 9.42143 3.92172 10.1716 3.17158C10.9217 2.42143 11.9391 2 13 2Z" fill="black"/>
<path d="M13 13C5.1 13 0 17.318 0 24C0 24.2652 0.105357 24.5196 0.292893 24.7071C0.48043 24.8946 0.734784 25 1 25H25C25.2652 25 25.5196 24.8946 25.7071 24.7071C25.8946 24.5196 26 24.2652 26 24C26 17.318 20.9 13 13 13ZM2.045 23C2.589 17.125 7.958 15 13 15C18.042 15 23.411 17.125 23.955 23H2.045Z" fill="black"/>
</svg>
